<svg xmlns="http://www.w3.org/2000/svg" xmlns:xlink="http://www.w3.org/1999/xlink" viewBox="0 0 1251.91 1902.17"><defs><style>.cls-1{isolation:isolate;}.cls-2{fill:url(#linear-gradient);}.cls-3{fill:url(#linear-gradient-2);}.cls-4{opacity:0.3;}.cls-5{opacity:0.6;}.cls-6{fill:#e6e6e6;}.cls-7{opacity:0.35;mix-blend-mode:soft-light;}</style><linearGradient id="linear-gradient" x1="1758.73" y1="1448.96" x2="2972.19" y2="2865.24" gradientUnits="userSpaceOnUse"><stop offset="0" stop-color="#aff57a"/><stop offset="1" stop-color="#54d169"/></linearGradient><linearGradient id="linear-gradient-2" x1="1764.67" y1="1443.88" x2="2978.12" y2="2860.14" xlink:href="#linear-gradient"/></defs><g class="cls-1"><g id="Layer_1" data-name="Layer 1"><path class="cls-2" d="M3114.22,2589.75c-68.06,276.75-317.72,482-615.4,482.22-349.09.25-634.7-291.79-634.7-640.88V1577.36c0-52,40.48-96.32,92.46-98.13a96,96,0,0,1,99.41,95.86v408.18q17-16.49,35.12-31.72V1422.72c0-52,40.42-96.32,92.4-98.18a95.92,95.92,0,0,1,99.41,95.86v420.66q17.32-6.27,35.12-11.56V1268c0-52,40.47-96.32,92.45-98.12a95.94,95.94,0,0,1,99.41,95.85v537.91c281.64,5.05,518.47,193.67,595.92,451.23a120,120,0,0,1,5.15,34.81c0,51.76-33.61,99.51-85.85,114.72-60.27,17.53-123.29-14.8-145.45-73.52-30.22-80.08-70.13-136.81-112.21-175-19.9-18.15-26.35-46.77-15.21-71.31l55.63-122.93a18.48,18.48,0,0,0-15.1-26l-83.48-7.84a9.62,9.62,0,0,0-7.48,16.6l6.45,6.09c14,13.1,5.25,36.56-13.87,37.38-53.11,2.27-129.74,3.56-136.8-7.32-6.45-9.8,19.18-27.07,41.51-39.76a8.36,8.36,0,0,0-.78-15,8.62,8.62,0,0,0-3.35-.67h-78.37a14.14,14.14,0,0,0-13.72,17.69l30,117.61a30.11,30.11,0,0,0,30.22,22.59c14.54-.52,26.2-1,40.48,1.24a174.22,174.22,0,0,1,24.28,5.67c-4.17-.31-8.25-.47-12.27-.47-3.56,0-7.22.11-10.93.36-18.87,1.29-39.39,5.93-60.54,14.44a244,244,0,0,0-35,17.53c-93.74,56.47-190.06,193.67-208.72,463.51-2.89,41.81,18.09,82.19,54.6,102.81,80.75,45.58,216.36,52.34,260.55,52.34a837.61,837.61,0,0,0,112.82-8.56h.05a619.16,619.16,0,0,0,71-14.18,375.12,375.12,0,0,0,53.38-18.1c.56-.31,1.18-.57,1.74-.82,2-.82,3.87-1.71,5.78-2.58a2.76,2.76,0,0,1,.62-.31c5.21-2.42,10.26-5,15.11-7.79,36.45-20.57,57.49-60.89,54.6-102.66,0-.21-.05-.41-.05-.62a60.05,60.05,0,0,1,54.09-64.09l65.07-6.19C3091.54,2510.55,3124.22,2549,3114.22,2589.75Z" transform="translate(-1864.13 -1169.8)"/><path class="cls-3" d="M2730.74,2446.66a99.62,99.62,0,0,0-40.26-27.58q-10.53-3.95-23.83-7.84c-7.58-2.27-15.87-4.54-24.8-6.8v-78.79c2.84.36,5.73.82,8.56,1.34,20.12,3.71,40.17,11.19,60.34,22.58l23-56.62q-22.12-13.75-51.56-21.19a245.92,245.92,0,0,0-40.33-6.44v-52.6h-56.46v54.4a152.79,152.79,0,0,0-38.26,10.67q-30.63,13.3-45.84,36.1a89.94,89.94,0,0,0-15.16,50.84q0,32.25,16.81,51.56a97.69,97.69,0,0,0,40.27,28.1q17.41,6.42,42.18,13v78.53a193.52,193.52,0,0,1-31.14-7.27q-28.55-9.21-49.24-24.39l-25.32,56.16q21.66,16.55,57.28,26.91a259.08,259.08,0,0,0,48.42,9.12v52.9h56.46v-53.51a162.5,162.5,0,0,0,44-11.5,138.28,138.28,0,0,0,12.89-6.45c14.23-8,25.32-17.84,33.36-29.7a88,88,0,0,0,15.42-50.38Q2747.56,2465.59,2730.74,2446.66ZM2585.39,2389c-2.88-1.08-5.57-2.16-7.89-3.25-11.49-5.41-17.27-13.61-17.27-24.64s5-20,14.95-26.71a46,46,0,0,1,10.21-5Zm72.86,139.43a55.09,55.09,0,0,1-16.4,6.34v-62.59c9.18,3,16.71,7.06,22.65,12.06a23.92,23.92,0,0,1,9,19.08C2673.46,2513.7,2668.36,2522.1,2658.25,2528.39Z" transform="translate(-1864.13 -1169.8)"/><g class="cls-4"><path class="cls-5" d="M2579.74,2717.68a190.16,190.16,0,0,1-158.8-207.5c29-281.56,155.43-399.92,206.94-420.28-4.17-.31-8.25-.47-12.27-.47-21.76,0-46.15,4.59-71.47,14.8a244,244,0,0,0-35,17.53c-93.74,56.47-190.06,193.67-208.72,463.51-2.89,41.81,18.09,82.19,54.6,102.81,80.75,45.58,216.36,52.34,260.55,52.34,32,0,111.69-3.51,183.87-22.74C2732.31,2733.08,2650.7,2729.21,2579.74,2717.68Z" transform="translate(-1864.13 -1169.8)"/><path class="cls-5" d="M2536.15,1988.94c-13.87-35.12,20.93-58.32,62.18-63.17a8.62,8.62,0,0,0-3.35-.67h-78.37a14.14,14.14,0,0,0-13.72,17.69l30,117.61a30.11,30.11,0,0,0,30.22,22.59c21.86-.77,37.12-1.45,64.76,6.91C2533.67,2059,2550,2024.05,2536.15,1988.94Z" transform="translate(-1864.13 -1169.8)"/></g><path class="cls-6" d="M2557.21,1953.82" transform="translate(-1864.13 -1169.8)"/><path class="cls-7" d="M2728.43,2731.86c-208.52,43.26-479.74-20.06-484.9-107.72,0-306.8,153.81-477,259.36-540.53,0,0,3.61-82.5,0-140.82l30,117.61a30.11,30.11,0,0,0,30.22,22.59c14.54-.52,26.2-1,40.48,1.24l1.08,5.56c-18.87,1.29-39.39,5.93-60.54,14.44a244,244,0,0,0-35,17.53c-93.74,56.47-190.06,193.67-208.72,463.51-2.89,41.81,18.09,82.19,54.6,102.81,80.75,45.58,216.36,52.34,260.55,52.34A837.61,837.61,0,0,0,2728.43,2731.86Z" transform="translate(-1864.13 -1169.8)"/></g></g></svg>